<?xml version="1.0" encoding="utf-8"?>
<!-- Generator: Adobe Illustrator 24.0.2, SVG Export Plug-In . SVG Version: 6.00 Build 0)  -->
<svg version="1.1" xmlns="http://www.w3.org/2000/svg" xmlns:xlink="http://www.w3.org/1999/xlink" x="0px" y="0px"
	 viewBox="0 0 384 384" style="enable-background:new 0 0 384 384;" xml:space="preserve">
<style type="text/css">
	.st0{display:none;}
	.st1{display:inline;}
	.st2{display:inline;fill:#74C9E3;}
	.st3{display:inline;fill:#FBBC53;}
	.st4{display:inline;fill:#FCD2A5;}
	.st5{display:inline;fill:#AFABB0;}
	.st6{display:inline;fill:#FFFFFF;}
	.st7{display:inline;fill:#9DD7EB;}
	.st8{display:none;fill:#E3F4F9;stroke:#000000;stroke-miterlimit:10;}
	.st9{fill:#F0DD6F;}
	.st10{fill:#74C9E3;}
	.st11{fill:#F06FAD;}
</style>
<g id="Capa_1" class="st0">
	<title>ico</title>
	<path class="st1" d="M0,168c2.1-4,5.4-5.3,9.9-5.2c15.7,0.2,31.3,0.1,47,0.1c5.8,0,9,2.8,9.2,7.5c0.1,4.6-3.4,7.6-9.2,7.6
		c-13.6,0-27.3,0-41.3,0v104.3h50.3c0-9,0-18,0-26.9c0-3.7-0.1-7.3,0-11c0.5-12.5,11-22.2,23.5-21.7c11.8,0.5,21.2,9.9,21.7,21.6
		c0.2,6.3,0.1,12.7,0.1,19v18.9h50.3V178h-5.3c-12,0-24,0-36,0c-5.8,0-9.3-3-9.2-7.5c0.1-4.8,3.4-7.6,9.1-7.6c16,0,32,0,48,0
		c6.4,0,8.9,2.6,9,9.2c0,18.2,0,36.3,0,54.5v5.5l36.6-8.1c-1.9-1.7-3.2-2.8-4.5-4c-10.9-9.9-17.1-22.1-17.1-36.9
		c0-13.3-0.8-26.8,1.2-39.9c4-25.4,27-41.9,53.8-40.4c23.6,1.4,44.4,21.9,45.8,46.4c0.8,12.3,0.8,24.7,0,37
		c-1,15.5-8.6,27.7-21.8,37.7c8.3,1.8,15.8,3.6,23.3,5.1c11,2.2,22.4,4.4,30,13.3c5,5.8,10.3,7,17.3,6.7c10.6-0.4,21.3,0.1,32-0.2
		c4.6-0.1,8.1,1.1,10.5,5.1v130H0v-40c2.4-4,5.9-5.4,10.5-5.1c4.3,0.3,8.7,0.1,13,0.1h18.2c1.3-17.8,7.4-24.6,24-27.4v-13.7h-5.6
		c-16.5,0-33-0.1-49.5,0.1c-4.6,0.1-8-1.3-10.6-5L0,168z M272.9,338.8v-5.8c0-24.8,0-49.6,0-74.4c0-7,2.6-9.5,9.7-9.6
		c6.5,0,13,0,19.5,0c1.3,0,2.6-0.2,3.9-0.3c0-0.4,0-0.9,0-1.3l-38.4-8.6c-0.8,2-1.6,3.7-2.2,5.4c-5.1,13.5-10.1,27.1-15.2,40.6
		c-0.2,0.5-0.1,1.1-0.5,1.4c-2.4,2-4.6,5-7.4,5.6c-3.8,0.8-6.3-2.2-7.6-5.8c-5.4-14.5-10.8-29-16.4-43.3c-0.5-1.4-2.8-3.4-3.8-3.2
		c-11.2,2.3-22.4,5-33.5,7.5c-3.1,0.7-4.2,2.4-4.1,5.6c0.2,12.2,0.1,24.3,0,36.5c0,5.9-2.9,8.8-8.9,9c-2.1,0.1-4.2,0-6.3,0v40.8
		L272.9,338.8z M15.6,368.3h352.7v-13.5H15.6L15.6,368.3z M207.1,171.4c0,4.4-0.1,8.2,0,12c0.6,17.9,14.7,32.5,32.5,33.8
		c18.4,1.3,34.5-11,37.3-28.9c0.9-5.9,0.7-12,0.7-17.9c0-1.3-1.4-2.9-2.5-3.7c-4.6-3-9.5-5.5-14.1-8.5c-2.3-1.4-3.7-1-5.6,0.6
		c-10.3,8.7-23.5,13.2-37,12.6C214.8,171.3,211.1,171.4,207.1,171.4z M276.8,149.5c-0.8-18.6-19.1-33.3-38.2-31.3
		s-34.1,20.1-30.9,37.1c17.8,1.7,30.9-0.3,42.7-13.5c3.1-3.5,6.8-3.9,10.8-1.5C266.3,143.3,271.3,146.2,276.8,149.5z M288.1,278.7
		h80.5v-14.3h-80.5V278.7z M368.7,294.4h-80.4v14.1h80.4V294.4z M368.7,324.3h-80.5v14.3h80.5L368.7,324.3z M81.1,311.6h14.8
		c0-22.4,0.1-44.5-0.1-66.6c0-4.3-3.5-7.1-7.6-7s-7,3-7.1,7.4c-0.2,6-0.1,12-0.1,18V311.6z M145.9,338.9v-40.8h-34.6v13.6
		c7.1,0.4,13.2,2.8,17.9,8s6.1,11.9,6,19.1L145.9,338.9L145.9,338.9z M119.4,338.7c1.1-7.9-2-11.6-9.6-11.6c-14.3,0-28.7,0-43,0
		c-7.5,0-10.6,4.1-9.1,11.8h58.8C117.5,338.9,118.5,338.7,119.4,338.7L119.4,338.7z M230.8,232.2l11.5,30.6
		c4.1-11,7.8-20.8,11.5-30.6H230.8z"/>
	<path class="st1" d="M78,0c4.4,1.2,9,2.1,13.3,3.6c36.4,12.1,56,51.4,43.9,87.8c-9.6,28.8-36.9,48.1-67.3,47.5
		c-32.8-0.4-61.7-25.3-67.1-57.7C0.7,80.1,0.4,79.1,0,78V61c0.4-0.9,0.7-1.8,0.9-2.7c5.3-27.5,21.3-45.8,47.7-55
		c4-1.4,8.3-2.2,12.4-3.2L78,0z M15.1,69.6c0.3,30,24.6,54.1,54.5,54.2c29.7-0.1,54.3-24.9,54.2-54.6S99.1,15,69.2,15.1
		C39.2,15.2,15,39.6,15.1,69.6L15.1,69.6z"/>
	<path class="st1" d="M96.1,171.3c-0.6,4-4.1,6.8-8.1,6.7c-4.2-0.3-7.3-3.9-7-8.1c0,0,0,0,0-0.1c0.3-4.1,3.9-7.2,8-6.9
		c0.1,0,0.2,0,0.3,0C93.4,163.3,96.4,167.1,96.1,171.3z"/>
	<path class="st2" d="M272.9,338.8H161.8v-40.8c2.1,0,4.2,0.1,6.3,0c6-0.2,8.9-3,8.9-9c0.1-12.1,0.1-24.3,0-36.5
		c0-3.2,1-4.9,4.1-5.6c11.2-2.5,22.3-5.2,33.5-7.5c1-0.2,3.2,1.8,3.8,3.2c5.6,14.4,11,28.9,16.4,43.3c1.4,3.6,3.8,6.6,7.6,5.8
		c2.8-0.6,5-3.6,7.4-5.6c0.3-0.3,0.3-0.9,0.5-1.4c5.1-13.5,10.1-27.1,15.2-40.6c0.6-1.7,1.4-3.3,2.2-5.4l38.4,8.6c0,0.4,0,0.9,0,1.3
		c-1.3,0.1-2.6,0.3-3.9,0.3c-6.5,0-13,0-19.5,0c-7.1,0-9.7,2.6-9.7,9.6c0,24.8,0,49.6,0,74.4L272.9,338.8z"/>
	<path class="st3" d="M15.6,368.3v-13.5h352.7v13.5H15.6z"/>
	<path class="st4" d="M207.1,171.4c4.1,0,7.7-0.1,11.3,0c13.5,0.5,26.7-4,37-12.6c2-1.6,3.4-2,5.6-0.6c4.6,3,9.5,5.5,14.1,8.5
		c1.2,0.8,2.5,2.4,2.5,3.7c0,6,0.3,12-0.7,17.9c-2.8,17.9-18.9,30.2-37.3,28.9c-17.9-1.3-31.9-15.9-32.5-33.8
		C207,179.5,207.1,175.8,207.1,171.4z"/>
	<path class="st5" d="M276.8,149.5c-5.6-3.3-10.6-6.2-15.6-9.1c-4-2.4-7.7-1.9-10.8,1.5c-11.9,13.2-25,15.1-42.7,13.5
		c-3.2-17,11.9-35.1,30.9-37.1S276.1,130.9,276.8,149.5z"/>
	<path class="st6" d="M288.1,278.7v-14.3h80.5v14.3H288.1z"/>
	<path class="st2" d="M81.1,311.6v-48.2c0-6-0.1-12,0.1-18c0.1-4.5,3.1-7.3,7.1-7.4s7.5,2.7,7.6,7c0.1,22.1,0.1,44.2,0.1,66.6
		L81.1,311.6z"/>
	<path class="st2" d="M119.4,338.7c-0.9,0.1-1.9,0.2-2.9,0.2H57.8c-1.5-7.8,1.7-11.8,9.1-11.8c14.3,0,28.7,0,43,0
		C117.4,327.1,120.5,330.8,119.4,338.7z"/>
	<path class="st7" d="M15.1,69.6c0-30,24.2-54.3,54.1-54.5c29.9-0.1,54.5,24.4,54.6,54.1s-24.5,54.5-54.2,54.6
		C39.6,123.7,15.3,99.6,15.1,69.6z M61.9,51c0,5.8-0.1,11.7,0.1,17.5c0.1,1.9,0.5,4.2,1.7,5.5c3.9,4.4,8,8.5,12.3,12.4
		c3.2,2.8,6.8,2.5,9.9-0.5s3.1-6.9,0.3-10.3c-1.8-2.2-3.8-4.2-5.9-6c-2.5-2.1-3.3-4.6-3.3-7.8c0.2-9,0.1-18,0.1-26.9
		c0-5.7-2.9-9.2-7.5-9.3s-7.6,3.4-7.6,9.1C61.9,40,61.9,45.5,61.9,51z"/>
	<path class="st1" d="M61.9,51c0-5.5,0-11,0-16.5c0-5.7,3-9.2,7.6-9.1S77,29,77,34.8c0,9,0.1,18-0.1,26.9c-0.1,3.3,0.8,5.7,3.3,7.8
		c2.1,1.8,4.1,3.8,5.9,6c2.9,3.4,2.7,7.4-0.3,10.3s-6.7,3.3-9.9,0.5c-4.3-3.8-8.4-8-12.3-12.3c-1.2-1.3-1.6-3.6-1.7-5.5
		C61.8,62.7,61.9,56.8,61.9,51z"/>
	<path class="st5" d="M56.5,177.7c-13.7,0-27.3,0-41.3,0V282h50.3v-26.9c0-3.7-0.1-7.3,0-11c0.5-12.5,11-22.2,23.5-21.7
		c11.8,0.5,21.2,9.9,21.7,21.6c0.2,6.3,0.1,12.7,0.1,19v18.9H161V177.7h-5.3c-12,0-24,0-36,0"/>
</g>
<g id="Capa_2_copia" class="st0">
	<path class="st1" d="M270.3,138.5c-59,0-106.8-38-106.8-84.8c0-12.4,3.4-24.3,9.5-34.9C135.8,32,110,61.6,110,96
		c0,46.9,47.8,84.8,106.8,84.8c43.3,0,80.6-20.5,97.4-49.9C300.8,135.8,286,138.5,270.3,138.5z"/>
	<path class="st1" d="M216.9,185.8c-62.3,0-113-40.3-113-89.8c0-35.2,26.1-67.3,66.5-81.8l15-5.4l-6.8,11.9
		c-5.9,10.4-8.9,21.5-8.9,32.9c0,44.1,45.2,79.9,100.7,79.9c14.4,0,28.3-2.4,41.4-7.1l15-5.4l-6.8,11.9
		C301.6,165.1,261.2,185.8,216.9,185.8z M161.4,29.3C133.5,44,116.2,69,116.2,96c0,44.1,45.2,79.9,100.7,79.9
		c34.1,0,65.6-13.8,84-35.9c-9.9,2.2-20.1,3.3-30.6,3.3c-62.3,0-113-40.3-113-89.8C157.2,45.3,158.7,37.2,161.4,29.3z"/>
	<path class="st1" d="M305.8,367.5h-10.2l-72.5-57.6V185.3h-12.4V310l-71.2,56.5h-10.1c-3.4,0-6.2,2.2-6.2,4.9s2.8,4.9,6.2,4.9h26.7
		c3.4,0,6.2-2.2,6.2-4.9c0-2.5-2.4-4.5-5.4-4.9l60-47.6l61.2,48.6c-3,0.3-5.3,2.4-5.3,4.8c0,2.7,2.8,4.9,6.2,4.9h26.7
		c3.4,0,6.2-2.2,6.2-4.9C312,369.7,309.2,367.5,305.8,367.5z"/>
	<g class="st1">
		<g>
			<path d="M350.2,230.5c-5.6,0-11.3-1.1-16.4-3.5c-15.6-7.2-21-23.1-12-35.5c6.4-8.8,18.8-13.9,31.6-12.9c3.4,0.3,5.9,2.7,5.6,5.4
				c-0.3,2.7-3.4,4.7-6.8,4.4c-8-0.6-15.7,2.5-19.7,8c-2.7,3.7-3.4,8.1-2,12.3c1.4,4.2,4.8,7.7,9.5,9.8c6.9,3.2,15.6,2.8,22.1-0.9
				c2.8-1.6,6.6-1.1,8.6,1.1c2,2.2,1.4,5.3-1.4,6.9C363.7,228.9,356.9,230.5,350.2,230.5z"/>
		</g>
		<path d="M370,214.5c-1.6,0-3.1-0.9-3.6-2.2l-6.9-20.5c-0.5-1.6,0.6-3.2,2.6-3.6c2-0.4,4,0.5,4.6,2.1l6.9,20.5
			c0.5,1.6-0.6,3.2-2.6,3.6C370.7,214.5,370.4,214.5,370,214.5z"/>
		<path d="M359.8,216.8c-1.6,0-3.1-0.9-3.6-2.2l-6.9-20.5c-0.5-1.6,0.6-3.2,2.6-3.6c2-0.4,4,0.5,4.6,2.1l6.9,20.5
			c0.5,1.6-0.6,3.2-2.6,3.6C360.4,216.7,360.1,216.8,359.8,216.8z"/>
	</g>
	<path class="st1" d="M153.7,253c-10.3,1.1-23.7,3.4-37.8,6.4l1.6,4.8l-1.6-4.8c-7.2,1.5-13.6,2.7-19.3,3.7c5-1.3,10.8-2.7,17.2-4
		l0,0l258-54.9l-3.2-9.5l-256.1,54.5l0,0c-14,3-27.1,6.3-36.7,9.5c-10.4,3.3-19.5,6.8-17.5,12.7c1.3,3.7,5.8,4.8,11.8,4.8
		c3.4,0,7.3-0.4,11.4-0.8c10.3-1.1,23.7-3.4,37.8-6.4l0,0c7.2-1.5,13.6-2.7,19.3-3.7c-5.5,1.4-11.9,2.9-19,4.4l0-0.1l-96.2,20.5
		L36,272.5l-6.4-3L8.3,298.8l36.8,16.9l3.7-5.1l-23.7-10.9l97.4-20.7l0,0.1c14-3,27.1-6.3,36.7-9.5c10.4-3.3,19.5-6.8,17.5-12.7
		C174.9,251.1,164.8,251.7,153.7,253z"/>
</g>
<g id="Capa_2">
	<rect class="st8" width="385.5" height="385.5"/>
	<path class="st9" d="M270.3,138.5c-59,0-106.8-38-106.8-84.8c0-12.4,3.4-24.3,9.5-34.9C135.8,32,110,61.6,110,96
		c0,46.9,47.8,84.8,106.8,84.8c43.3,0,80.6-20.5,97.4-49.9C300.8,135.8,286,138.5,270.3,138.5z"/>
	<path d="M216.9,185.8c-62.3,0-113-40.3-113-89.8c0-35.2,26.1-67.3,66.5-81.8l15-5.4l-6.8,11.9c-5.9,10.4-8.9,21.5-8.9,32.9
		c0,44.1,45.2,79.9,100.7,79.9c14.4,0,28.3-2.4,41.4-7.1l15-5.4l-6.8,11.9C301.6,165.1,261.2,185.8,216.9,185.8z M161.4,29.3
		C133.5,44,116.2,69,116.2,96c0,44.1,45.2,79.9,100.7,79.9c34.1,0,65.6-13.8,84-35.9c-9.9,2.2-20.1,3.3-30.6,3.3
		c-62.3,0-113-40.3-113-89.8C157.2,45.3,158.7,37.2,161.4,29.3z"/>
	<path d="M305.8,367.5h-10.2l-72.5-57.6V185.3h-12.4V310l-71.2,56.5h-10.1c-3.4,0-6.2,2.2-6.2,4.9s2.8,4.9,6.2,4.9h26.7
		c3.4,0,6.2-2.2,6.2-4.9c0-2.5-2.4-4.5-5.4-4.9l60-47.6l61.2,48.6c-3,0.3-5.3,2.4-5.3,4.8c0,2.7,2.8,4.9,6.2,4.9h26.7
		c3.4,0,6.2-2.2,6.2-4.9C312,369.7,309.2,367.5,305.8,367.5z"/>
	<g>
		<g>
			<path class="st10" d="M350.2,230.5c-5.6,0-11.3-1.1-16.4-3.5c-15.6-7.2-21-23.1-12-35.5c6.4-8.8,18.8-13.9,31.6-12.9
				c3.4,0.3,5.9,2.7,5.6,5.4c-0.3,2.7-3.4,4.7-6.8,4.4c-8-0.6-15.7,2.5-19.7,8c-2.7,3.7-3.4,8.1-2,12.3c1.4,4.2,4.8,7.7,9.5,9.8
				c6.9,3.2,15.6,2.8,22.1-0.9c2.8-1.6,6.6-1.1,8.6,1.1c2,2.2,1.4,5.3-1.4,6.9C363.7,228.9,356.9,230.5,350.2,230.5z"/>
		</g>
		<path class="st10" d="M370,214.5c-1.6,0-3.1-0.9-3.6-2.2l-6.9-20.5c-0.5-1.6,0.6-3.2,2.6-3.6c2-0.4,4,0.5,4.6,2.1l6.9,20.5
			c0.5,1.6-0.6,3.2-2.6,3.6C370.7,214.5,370.4,214.5,370,214.5z"/>
		<path class="st10" d="M359.8,216.8c-1.6,0-3.1-0.9-3.6-2.2l-6.9-20.5c-0.5-1.6,0.6-3.2,2.6-3.6c2-0.4,4,0.5,4.6,2.1l6.9,20.5
			c0.5,1.6-0.6,3.2-2.6,3.6C360.4,216.7,360.1,216.8,359.8,216.8z"/>
	</g>
	<path class="st11" d="M153.7,253c-10.3,1.1-23.7,3.4-37.8,6.4l1.6,4.8l-1.6-4.8c-7.2,1.5-13.6,2.7-19.3,3.7c5-1.3,10.8-2.7,17.2-4
		l0,0l258-54.9l-3.2-9.5l-256.1,54.5l0,0c-14,3-27.1,6.3-36.7,9.5c-10.4,3.3-19.5,6.8-17.5,12.7c1.3,3.7,5.8,4.8,11.8,4.8
		c3.4,0,7.3-0.4,11.4-0.8c10.3-1.1,23.7-3.4,37.8-6.4l0,0c7.2-1.5,13.6-2.7,19.3-3.7c-5.5,1.4-11.9,2.9-19,4.4l0-0.1l-96.2,20.5
		L36,272.5l-6.4-3L8.3,298.8l36.8,16.9l3.7-5.1l-23.7-10.9l97.4-20.7l0,0.1c14-3,27.1-6.3,36.7-9.5c10.4-3.3,19.5-6.8,17.5-12.7
		C174.9,251.1,164.8,251.7,153.7,253z"/>
</g>
</svg>
