<?xml version="1.0" encoding="utf-8"?>
<!-- Generator: Adobe Illustrator 24.0.2, SVG Export Plug-In . SVG Version: 6.00 Build 0)  -->
<svg version="1.1" id="Capa_1" xmlns="http://www.w3.org/2000/svg" xmlns:xlink="http://www.w3.org/1999/xlink" x="0px" y="0px"
	 viewBox="0 0 384 384" style="enable-background:new 0 0 384 384;" xml:space="preserve">
<style type="text/css">
	.st0{display:none;}
</style>
<g id="Capa_2_copia">
	<path class="st0" d="M270.3,138.5c-59,0-106.8-38-106.8-84.8c0-12.4,3.4-24.3,9.5-34.9C135.8,32,110,61.6,110,96
		c0,46.9,47.8,84.8,106.8,84.8c43.3,0,80.6-20.5,97.4-49.9C300.8,135.8,286,138.5,270.3,138.5z"/>
	<path d="M216.9,185.8c-62.3,0-113-40.3-113-89.8c0-35.2,26.1-67.3,66.5-81.8l15-5.4l-6.8,11.9c-5.9,10.4-8.9,21.5-8.9,32.9
		c0,44.1,45.2,79.9,100.7,79.9c14.4,0,28.3-2.4,41.4-7.1l15-5.4l-6.8,11.9C301.6,165.1,261.2,185.8,216.9,185.8z M161.4,29.3
		C133.5,44,116.2,69,116.2,96c0,44.1,45.2,79.9,100.7,79.9c34.1,0,65.6-13.8,84-35.9c-9.9,2.2-20.1,3.3-30.6,3.3
		c-62.3,0-113-40.3-113-89.8C157.2,45.3,158.7,37.2,161.4,29.3z"/>
	<path d="M305.8,367.5h-10.2l-72.5-57.6V185.3h-12.4V310l-71.2,56.5h-10.1c-3.4,0-6.2,2.2-6.2,4.9s2.8,4.9,6.2,4.9h26.7
		c3.4,0,6.2-2.2,6.2-4.9c0-2.5-2.4-4.5-5.4-4.9l60-47.6l61.2,48.6c-3,0.3-5.3,2.4-5.3,4.8c0,2.7,2.8,4.9,6.2,4.9h26.7
		c3.4,0,6.2-2.2,6.2-4.9C312,369.7,309.2,367.5,305.8,367.5z"/>
	<g>
		<g>
			<path d="M350.2,230.5c-5.6,0-11.3-1.1-16.4-3.5c-15.6-7.2-21-23.1-12-35.5c6.4-8.8,18.8-13.9,31.6-12.9c3.4,0.3,5.9,2.7,5.6,5.4
				s-3.4,4.7-6.8,4.4c-8-0.6-15.7,2.5-19.7,8c-2.7,3.7-3.4,8.1-2,12.3s4.8,7.7,9.5,9.8c6.9,3.2,15.6,2.8,22.1-0.9
				c2.8-1.6,6.6-1.1,8.6,1.1c2,2.2,1.4,5.3-1.4,6.9C363.7,228.9,356.9,230.5,350.2,230.5z"/>
		</g>
		<path d="M370,214.5c-1.6,0-3.1-0.9-3.6-2.2l-6.9-20.5c-0.5-1.6,0.6-3.2,2.6-3.6c2-0.4,4,0.5,4.6,2.1l6.9,20.5
			c0.5,1.6-0.6,3.2-2.6,3.6C370.7,214.5,370.4,214.5,370,214.5z"/>
		<path d="M359.8,216.8c-1.6,0-3.1-0.9-3.6-2.2l-6.9-20.5c-0.5-1.6,0.6-3.2,2.6-3.6c2-0.4,4,0.5,4.6,2.1l6.9,20.5
			c0.5,1.6-0.6,3.2-2.6,3.6C360.4,216.7,360.1,216.8,359.8,216.8z"/>
	</g>
	<path d="M153.7,253c-10.3,1.1-23.7,3.4-37.8,6.4l1.6,4.8l-1.6-4.8c-7.2,1.5-13.6,2.7-19.3,3.7c5-1.3,10.8-2.7,17.2-4l0,0l258-54.9
		l-3.2-9.5l-256.1,54.5l0,0c-14,3-27.1,6.3-36.7,9.5c-10.4,3.3-19.5,6.8-17.5,12.7c1.3,3.7,5.8,4.8,11.8,4.8c3.4,0,7.3-0.4,11.4-0.8
		c10.3-1.1,23.7-3.4,37.8-6.4l0,0c7.2-1.5,13.6-2.7,19.3-3.7c-5.5,1.4-11.9,2.9-19,4.4v-0.1l-96.2,20.5L36,272.5l-6.4-3L8.3,298.8
		l36.8,16.9l3.7-5.1l-23.7-10.9l97.4-20.7v0.1c14-3,27.1-6.3,36.7-9.5c10.4-3.3,19.5-6.8,17.5-12.7
		C174.9,251.1,164.8,251.7,153.7,253z"/>
</g>
</svg>
